<?xml version="1.0" encoding="utf-8"?>
<!-- Generator: Adobe Illustrator 22.0.0, SVG Export Plug-In . SVG Version: 6.00 Build 0)  -->
<svg version="1.1" id="Layer_2" xmlns="http://www.w3.org/2000/svg" xmlns:xlink="http://www.w3.org/1999/xlink" x="0px" y="0px"
	 viewBox="0 0 605.7 196.9" style="enable-background:new 0 0 605.7 196.9;" xml:space="preserve">
<style type="text/css">
	.st0{clip-path:url(#SVGID_2_);}
	.st1{clip-path:url(#SVGID_4_);}
	.st2{clip-path:url(#SVGID_6_);}
	.st3{fill:#FF6161;stroke:#FF6161;stroke-linecap:round;stroke-linejoin:round;stroke-miterlimit:10;}
	.st4{fill:#FF6161;stroke:#FF6161;stroke-width:1.5;stroke-miterlimit:10;}
	.st5{fill:#FF6161;}
	.st6{fill:#51317C;}
</style>
<g id="Layer_1">
	<g>
		<defs>
			<rect id="SVGID_1_" x="-198.3" y="-12.9" width="544.6" height="544.6"/>
		</defs>
		<clipPath id="SVGID_2_">
			<use xlink:href="#SVGID_1_"  style="overflow:visible;"/>
		</clipPath>
		<g class="st0">
			<g>
				<defs>
					<rect id="SVGID_3_" x="9.3" y="22.3" width="109.7" height="158.1"/>
				</defs>
				<clipPath id="SVGID_4_">
					<use xlink:href="#SVGID_3_"  style="overflow:visible;"/>
				</clipPath>
				<g class="st1">
					<defs>
						<rect id="SVGID_5_" x="9.3" y="22.3" width="109.7" height="158.1"/>
					</defs>
					<clipPath id="SVGID_6_">
						<use xlink:href="#SVGID_5_"  style="overflow:visible;"/>
					</clipPath>
					<g class="st2">
						<path class="st3" d="M64.1,164.9V156h-0.8v0.2c0,0.7-2.6,1.1-4.9,1.1h-0.3l0,0.3c-0.4,3.3,1.2,5.1,2.5,6c1.5,1,3,1.2,3.1,1.2
							L64.1,164.9z M64.9,156v8.9l0.4-0.1c0.1,0,1.6-0.2,3.1-1.2c1.4-0.9,2.9-2.7,2.5-6l0-0.3h-0.3c-2.3,0-4.9-0.5-4.9-1.1V156H64.9
							z M52.4,148.1c0.9,0,2.5,0.5,4.7,3l0.1,0.1c0.9,0.6,2.9,1.2,4.3-0.9l0.1-0.1l0-9.1h1c0.7,0.2,1.4,0.3,2.1,0.3
							c0.7,0,1.4-0.1,2.1-0.3h0.6l0,9.1l0.1,0.1c0.9,1.3,2,1.5,2.8,1.4c0.8-0.1,1.5-0.5,1.5-0.5l0.1-0.1c2.2-2.5,3.7-3,4.6-3
							c1,0,1.6,0.7,1.6,0.7c0.9,1.1,1.2,2.1,1,3.1c-0.5,2.3-3.8,3.8-3.9,3.8l-0.2,0.1l0,0.2l-0.4,0c0,0.1,0.3,6.1-3.1,9.7
							c-1.7,1.8-4,2.7-6.9,2.8c-2.9,0-5.2-1-6.9-2.8c-3.4-3.6-3.1-9.6-3.1-9.7l-0.4,0l0-0.2l-0.2-0.1c0,0-3.3-1.5-3.9-3.8
							c-0.2-1,0.1-2.1,1-3.2C50.8,148.8,51.3,148.2,52.4,148.1"/>
					</g>
					<g class="st2">
						<path class="st4" d="M23.9,152.6c5.6,9.4,17,20.6,39.8,20.6c22.8,0,34.5-11.2,40.2-20.6c6.2-10.2,7-20.5,7-20.6
							c0-0.1,0.4-14.4-10.1-25.3c-8.2-8.6-20.7-12.9-37.2-12.9c-16.5,0-28.9,4.3-36.9,12.9c-10.3,10.9-9.6,25.1-9.6,25.3
							C17.3,132.1,17.9,142.4,23.9,152.6 M78.1,87.7l0,0.3l8.3,2.5V68.9c1.3-2.1,2.6-3.2,3.7-3.1c1.7,0.1,2.9,2.6,3.1,3.1v24.3
							l9.1,5.8l0-0.7c0-0.1,0.5-14.3-0.3-29.4c-1-20.5-3.7-33-7.8-37.3c-1.1-1.1-2.3-1.7-3.6-1.7c-1.5,0-2.9,0.6-4.1,1.9
							c-4,4.1-6.6,14.8-7.8,31.7C77.8,76.1,78.1,87.6,78.1,87.7 M41.8,68.9v21.6l8.3-2.5l0-0.3c0-0.1,0.3-11.6-0.6-24.2
							c-1.2-17-3.8-27.6-7.8-31.7c-1.2-1.3-2.6-1.9-4.1-1.9c-1.3,0-2.5,0.6-3.6,1.7c-4.2,4.3-6.8,16.9-7.8,37.3
							c-0.8,15.2-0.3,29.3-0.3,29.4l0,0.7l9.1-5.8V68.9c0.2-0.4,1.3-2.9,3.1-3.1C39.3,65.8,40.5,66.8,41.8,68.9 M44.9,26.8
							C57.9,40.1,57,85,57,85.5l0,0.4h12.9l0-0.4c0-0.2,0.2-15.8,3-31.3c2.6-14.2,7.9-31.1,18.5-31.1c2.2,0,4.2,1,6,2.8
							c14,14.5,11.8,79.3,11.8,80l0,0.1l0.1,0.1c0.1,0.1,9,11.4,9,26.2c0,7-3.2,18.8-12.1,29.2c-7.1,8.2-20.1,18-42,18
							c-40.9,0-54.1-31.3-54.1-46.5c0-16.3,8.9-26.9,9-27l0.1-0.1l0-0.2c0-0.6-3.1-64.8,11.1-79.7c1.9-2,4.1-3.1,6.5-3.1
							C39.7,23.1,42.5,24.3,44.9,26.8"/>
					</g>
					<g class="st2">
						<path class="st3" d="M67.2,140.4v0.6c-0.2,0.1-0.4,0.1-0.6,0.2h-4.2c-0.3-0.1-0.7-0.2-1-0.4v-0.4H67.2z"/>
					</g>
					<g class="st2">
						<path class="st5" d="M62.4,141.1h4.2c-0.7,0.2-1.4,0.3-2.1,0.3C63.8,141.4,63.1,141.3,62.4,141.1"/>
					</g>
					<g class="st2">
						<path class="st5" d="M49.4,87.5c0.1-3.8,0.7-46-8.2-55.1c-1.1-1.1-2.3-1.7-3.6-1.7c-1.1,0-2.1,0.5-3.1,1.5
							c-9.1,9.4-8.1,59.2-7.9,65.5l7.6-4.8V68.8l0-0.1c0.1-0.1,1.4-3.4,3.7-3.6c1.5-0.1,3,1.1,4.5,3.5l0.1,0.1v20.8L49.4,87.5z
							 M50.1,87.7l0,0.3l-8.3,2.5V68.9c-1.3-2.1-2.6-3.2-3.8-3.1c-1.7,0.1-2.9,2.6-3.1,3.1v24.3L26,99l0-0.7
							c0-0.1-0.5-14.3,0.3-29.4c1-20.5,3.7-33,7.8-37.3c1.1-1.1,2.3-1.7,3.6-1.7c1.5,0,2.9,0.6,4.1,1.9c4,4.1,6.6,14.8,7.8,31.7
							C50.4,76.1,50.1,87.6,50.1,87.7"/>
					</g>
					<g class="st2">
						<path class="st5" d="M63.8,93.8c16.5,0,29,4.3,37.2,12.9c10.5,11,10.1,25.2,10.1,25.3c0,0.1-0.8,10.4-7,20.6
							c-5.7,9.4-17.4,20.6-40.2,20.6c-22.8,0-34.3-11.2-39.8-20.6c-6-10.2-6.7-20.5-6.7-20.6c0-0.2-0.7-14.4,9.6-25.3
							C34.9,98.1,47.3,93.8,63.8,93.8 M100.4,107.2C92.3,98.8,80,94.5,63.8,94.5c-16.2,0-28.5,4.3-36.4,12.6
							C17.3,117.9,18,131.8,18,132c0,0.1,0.2,2.6,1.1,6.4c0.9,3.8,2.5,8.8,5.5,13.9c5.5,9.2,16.7,20.2,39.2,20.2
							c22.5,0,33.9-11,39.6-20.2c6.1-10,6.9-20.1,6.9-20.3C110.3,131.8,110.7,117.9,100.4,107.2"/>
					</g>
					<g class="st2">
						<path class="st5" d="M35,115.7c3.1,0,5.7,2.5,5.7,5.7c0,3.1-2.5,5.7-5.7,5.7c-3.1,0-5.7-2.5-5.7-5.7
							C29.3,118.3,31.9,115.7,35,115.7"/>
					</g>
					<g class="st2">
						<path class="st5" d="M93.3,115.7c3.1,0,5.7,2.5,5.7,5.7c0,3.1-2.5,5.7-5.7,5.7c-3.1,0-5.7-2.5-5.7-5.7
							C87.6,118.3,90.1,115.7,93.3,115.7"/>
					</g>
					<g class="st2">
						<path class="st5" d="M86.4,90.5L78.1,88l0-0.3c0-0.1-0.3-11.6,0.6-24.2c1.2-17,3.8-27.6,7.8-31.7c1.2-1.3,2.6-1.9,4.1-1.9
							c1.3,0,2.5,0.6,3.6,1.7c4.2,4.3,6.8,16.9,7.8,37.3c0.8,15.2,0.3,29.3,0.3,29.4l0,0.7l-9.1-5.8V68.9c-0.2-0.4-1.3-2.9-3.1-3.1
							c-1.2-0.1-2.4,0.9-3.7,3.1V90.5z M87,32.3c-8.9,9.1-8.2,51.3-8.2,55.1l6.8,2V68.7l0.1-0.1c1.5-2.5,3-3.7,4.5-3.5
							c2.3,0.2,3.7,3.4,3.7,3.6l0,0.1v24l7.6,4.8c0.2-6.4,1.2-56.1-7.9-65.5c-0.9-1-2-1.5-3.1-1.5C89.3,30.6,88.1,31.2,87,32.3"/>
					</g>
					<g class="st2">
						<path class="st5" d="M61.5,140.4v0.4c-0.2-0.1-0.5-0.2-0.7-0.4H61.5z"/>
					</g>
					<g class="st2">
						<path class="st5" d="M36.9,107.5c2.4-0.1,2.4,3.6,0,3.7c-2.8,0.1-5.6,1.9-7.8,3.5c-1.9,1.4-3.8-1.8-1.9-3.2
							C30,109.4,33.4,107.6,36.9,107.5"/>
					</g>
					<g class="st2">
						<path class="st5" d="M67.9,140.4v0.2c-0.2,0.1-0.5,0.2-0.8,0.4v-0.6H67.9z"/>
					</g>
					<g class="st2">
						<path class="st5" d="M72.8,54.2c-2.8,15.5-3,31.2-3,31.3l0,0.4H56.9l0-0.4c0-0.5,0.9-45.4-12.1-58.7c-2.4-2.5-5.2-3.7-8.2-3.7
							c-2.4,0-4.6,1-6.5,3.1C16,41.1,19.1,105.2,19.1,105.9l0,0.2l-0.1,0.1c-0.1,0.1-9,10.7-9,27c0,15.2,13.2,46.5,54.1,46.5
							c21.9,0,34.9-9.8,42-18c8.9-10.4,12.1-22.3,12.1-29.2c0-14.8-8.9-26.1-9-26.2l-0.1-0.1l0-0.1c0-0.6,2.2-65.5-11.8-80
							c-1.8-1.9-3.8-2.8-6-2.8C80.7,23.1,75.4,40,72.8,54.2 M18.5,71.6c1.3-24.1,5.1-39.6,11.1-46c2.1-2.2,4.4-3.3,7-3.3
							c3.3,0,6.2,1.3,8.7,3.9C51,31.9,54.7,43.7,56.6,61c1.2,11.6,1.2,21.9,1.1,24h11.3c0.1-2.5,0.5-16.9,3-31.1
							c3.8-21,10.3-31.7,19.3-31.7c2.4,0,4.6,1,6.6,3.1c6,6.2,9.8,21.6,11.4,45.9c1.1,17.2,0.7,32.9,0.6,34.5
							c0.9,1.2,9.1,12.3,9.1,26.6c0,7.1-3.2,19.2-12.3,29.7c-7.2,8.3-20.4,18.3-42.5,18.3c-41.4,0-54.8-31.9-54.8-47.3
							c0-15.7,8.1-26.1,9.1-27.4"/>
					</g>
					<g class="st2">
						<path class="st5" d="M71.7,134.3c0,2.7-1.5,5.1-3.8,6.3v-0.2h-0.8h-5.7h-0.7c-2-1.3-3.4-3.5-3.4-6.1c0-4,3.2-7.2,7.2-7.2
							S71.7,130.3,71.7,134.3"/>
					</g>
					<g class="st2">
						<path class="st5" d="M61.5,140.8c0.3,0.1,0.6,0.3,1,0.4h-1V140.8z"/>
					</g>
					<g class="st2">
						<path class="st5" d="M71.6,165.9c-1.7,1.8-4.1,2.8-7.1,2.8h-0.2c2.9,0,5.2-1,6.9-2.8c3.4-3.6,3.1-9.6,3.1-9.7l0.4,0v0
							C74.7,156.3,75,162.3,71.6,165.9"/>
					</g>
					<g class="st2">
						<path class="st5" d="M67.2,140.9v0.2h-0.6C66.8,141.1,67,141,67.2,140.9"/>
					</g>
					<g class="st2">
						<path class="st5" d="M101.4,111.5c1.9,1.4,0,4.7-1.9,3.2c-2.2-1.6-5-3.4-7.8-3.5c-2.4-0.1-2.4-3.8,0-3.7
							C95.2,107.6,98.6,109.4,101.4,111.5"/>
					</g>
				</g>
			</g>
		</g>
	</g>
	<g>
		<path class="st6" d="M205.8,89.4v50.8c0,2.6-2.2,4.8-4.9,4.8c-2.2,0-4-1.4-4.6-3.4c-3.2,2.2-7.2,3.5-11.4,3.5
			c-11.1,0-20.2-9-20.2-20.2c0-11.1,9.1-20.2,20.2-20.2c4.2,0,8,1.3,11.3,3.4V89.4c0-2.6,2.2-4.9,4.8-4.9
			C203.6,84.5,205.8,86.7,205.8,89.4z M195.4,124.9c0-5.8-4.7-10.5-10.5-10.5c-5.8,0-10.5,4.7-10.5,10.5c0,5.8,4.7,10.5,10.5,10.5
			C190.7,135.5,195.4,130.8,195.4,124.9z"/>
		<path class="st6" d="M244.2,127.8h-24.6c1.1,4.6,5.2,8.1,10.1,8.1c2.6,0,6.3-1,8.4-3c1.9-1.8,5-1.8,6.8,0.1c1.9,1.8,1.8,5-0.1,6.8
			c-4.4,4.2-10.5,5.7-15.1,5.7c-11.1,0-20-8.9-20-20.1c0-10.9,8.9-20.1,20-20.1c1.2,0,2.3,0.1,3.5,0.3c5.4,1,10.1,4.4,12.9,9.2
			c1.3,2.2,2.7,5.2,2.6,7.8c0,0.7-0.3,1.5-0.6,2.3C247.5,126.4,246.1,127.8,244.2,127.8z M221,119.7h16.9c-1.6-3-4.6-4.8-8.1-4.8
			C226.1,114.9,222.9,116.8,221,119.7z"/>
		<path class="st6" d="M267.5,145.3c-5.1,0-10.2-2.1-12.9-4.6c-1.9-1.8-2.1-4.8-0.2-6.7c1.8-2,4.8-2.1,6.7-0.3
			c1.4,1.4,6.8,3.2,9.8,1.2c0.8-0.5,1.3-1.4,1.3-2.2c0-1.1-1-1.9-1.8-2.2c-0.7-0.4-2-0.4-3.4-0.4c-1.9,0-4.1-0.1-6.3-0.9
			c-4.2-1.4-7.5-5.7-7.8-9.8c-0.4-5,1.8-8.1,3.6-9.9c4-3.7,9.8-4.2,14.1-3.5c3.2,0.6,5.6,1.7,7.6,3.5c1.9,1.8,2.1,4.8,0.3,6.7
			c-1,1.1-2.6,1.7-4.1,1.5c-0.7-0.1-1.4-0.3-2.1-0.7c-1.1-0.8-1.9-1.4-3.4-1.6c-2.4-0.4-6.9-0.2-6.6,3.2c0.1,0.4,0.8,1.4,1.4,1.7
			c0.8,0.2,2,0.2,3.3,0.2c2.1,0.1,4.7,0.1,7.3,1.3c4.4,2,7.3,6.3,7.3,10.9c0,4.1-2.1,7.9-5.5,10.2
			C273.5,144.7,270.5,145.3,267.5,145.3z"/>
		<path class="st6" d="M320.2,143.5c-1,1-2.3,1.5-3.6,1.5c-1.2,0-2.3-0.4-3.3-1.3l-16.3-15v11.9c0,2.7-2.2,4.9-4.9,4.9
			c-2.7,0-4.9-2.2-4.9-4.9V89.7c0-2.7,2.2-4.9,4.9-4.9c2.7,0,4.9,2.2,4.9,4.9v27l15.7-10.9c2.2-1.5,5.3-1,6.8,1.2
			c1.6,2.2,1,5.2-1.1,6.8l-13.3,9l14.9,13.7C321.9,138.4,322,141.4,320.2,143.5z"/>
		<path class="st6" d="M384.4,125.1v15.1c0,2.6-2.1,4.8-4.7,4.8c-2.7,0-4.8-2.2-4.8-4.8v-15.1c0-5.7-4.2-10.2-9.2-10.2
			c-6.2,0-9.4,6.2-9.4,11.7v13.6c0,2.6-2.2,4.8-4.8,4.8s-4.8-2.2-4.8-4.8v-30.5c0-2.6,2.2-4.8,4.8-4.8c2.1,0,3.8,1.4,4.5,3.3
			c2.9-1.8,6.2-2.9,9.7-2.9C376,105.3,384.4,114.1,384.4,125.1z"/>
		<path class="st6" d="M396.2,98.2c-2.8,0-5-2.2-5-4.9V93c0-2.8,2.2-5,5-5c2.6,0,4.9,2.2,4.9,5v0.4C401.1,96,398.8,98.2,396.2,98.2z
			 M396.2,145.1c-2.8,0-5-2.2-5-5v-30.8c0-2.7,2.2-4.9,5-4.9c2.6,0,4.9,2.2,4.9,4.9v30.8C401.1,142.9,398.8,145.1,396.2,145.1z"/>
		<path class="st6" d="M449,124.9c0,11.2-9.1,20.2-20.2,20.2c-4.2,0-8.2-1.3-11.4-3.5c-0.6,1.9-2.5,3.4-4.6,3.4
			c-2.7,0-4.9-2.2-4.9-4.8V89.3c0-2.6,2.2-4.9,4.9-4.9c2.6,0,4.8,2.2,4.8,4.9V108c3.3-2.1,7.1-3.4,11.3-3.4
			C439.9,104.6,449,113.7,449,124.9z M439.3,124.9c0-5.8-4.8-10.5-10.5-10.5c-5.8,0-10.5,4.7-10.5,10.5c0,5.8,4.7,10.5,10.5,10.5
			C434.5,135.4,439.3,130.7,439.3,124.9z"/>
		<path class="st6" d="M494.9,124.9c0,11.2-9.1,20.2-20.2,20.2c-4.2,0-8.2-1.3-11.4-3.5c-0.6,1.9-2.5,3.4-4.6,3.4
			c-2.7,0-4.9-2.2-4.9-4.8V89.3c0-2.6,2.2-4.9,4.9-4.9c2.6,0,4.8,2.2,4.8,4.9V108c3.3-2.1,7.1-3.4,11.3-3.4
			C485.8,104.6,494.9,113.7,494.9,124.9z M485.3,124.9c0-5.8-4.8-10.5-10.5-10.5c-5.8,0-10.5,4.7-10.5,10.5
			c0,5.8,4.7,10.5,10.5,10.5C480.5,135.4,485.3,130.7,485.3,124.9z"/>
		<path class="st6" d="M517.1,140.3c0,2.7-2.2,4.9-4.9,4.9c-3.4,0-6.6-1.7-8.7-4.3c-2.4-3.1-2.2-6.6-2.2-10.4v-23.9
			c0-5.8,0-11.5,0-17.3c0-2.6,2.2-4.8,4.8-4.8c2.7,0,4.9,2.2,4.9,4.8v43.4c0,0.2-0.1,0.5-0.1,0.7c0,0.2,0.1,0.5,0.1,0.7
			c0,0.7,0.6,1.4,1.3,1.4C515,135.5,517.1,137.6,517.1,140.3z"/>
		<path class="st6" d="M554.8,127.8h-24.6c1.1,4.6,5.2,8.1,10.1,8.1c2.6,0,6.3-1,8.4-3c1.9-1.8,5-1.8,6.8,0.1c1.9,1.8,1.8,5-0.1,6.8
			c-4.4,4.2-10.5,5.7-15.1,5.7c-11.1,0-20-8.9-20-20.1c0-10.9,8.9-20.1,20-20.1c1.2,0,2.3,0.1,3.5,0.3c5.4,1,10.1,4.4,12.9,9.2
			c1.3,2.2,2.7,5.2,2.6,7.8c0,0.7-0.3,1.5-0.6,2.3C558,126.4,556.7,127.8,554.8,127.8z M531.5,119.7h16.9c-1.6-3-4.6-4.8-8.1-4.8
			C536.6,114.9,533.4,116.8,531.5,119.7z"/>
		<path class="st6" d="M578,145.3c-5.1,0-10.2-2.1-12.9-4.6c-1.9-1.8-2.1-4.8-0.2-6.7c1.8-2,4.8-2.1,6.7-0.3
			c1.4,1.4,6.8,3.2,9.8,1.2c0.8-0.5,1.3-1.4,1.3-2.2c0-1.1-1-1.9-1.8-2.2c-0.7-0.4-2-0.4-3.4-0.4c-1.9,0-4.1-0.1-6.3-0.9
			c-4.2-1.4-7.5-5.7-7.8-9.8c-0.4-5,1.8-8.1,3.6-9.9c4-3.7,9.8-4.2,14.1-3.5c3.2,0.6,5.6,1.7,7.6,3.5c1.9,1.8,2.1,4.8,0.3,6.7
			c-1,1.1-2.6,1.7-4.1,1.5c-0.7-0.1-1.4-0.3-2.1-0.7c-1.1-0.8-1.9-1.4-3.4-1.6c-2.4-0.4-6.9-0.2-6.6,3.2c0.1,0.4,0.8,1.4,1.4,1.7
			c0.8,0.2,2,0.2,3.3,0.2c2.1,0.1,4.7,0.1,7.4,1.3c4.4,2,7.3,6.3,7.3,10.9c0,4.1-2.1,7.9-5.5,10.2C584,144.7,581.1,145.3,578,145.3z
			"/>
	</g>
</g>
</svg>
